<svg width="48" height="48" viewBox="0 0 48 48" fill="none" xmlns="http://www.w3.org/2000/svg">
<path d="M28.9998 27.3334C24.5498 27.3334 15.6665 29.5501 15.6665 34.0001V37.3334H42.3332V34.0001C42.3332 29.5501 33.4498 27.3334 28.9998 27.3334ZM13.9998 20.6667V15.6667H10.6665V20.6667H5.6665V24.0001H10.6665V29.0001H13.9998V24.0001H18.9998V20.6667H13.9998ZM28.9998 24.0001C30.7679 24.0001 32.4636 23.2977 33.7139 22.0475C34.9641 20.7972 35.6665 19.1015 35.6665 17.3334C35.6665 15.5653 34.9641 13.8696 33.7139 12.6194C32.4636 11.3691 30.7679 10.6667 28.9998 10.6667C27.2317 10.6667 25.536 11.3691 24.2858 12.6194C23.0355 13.8696 22.3332 15.5653 22.3332 17.3334C22.3332 19.1015 23.0355 20.7972 24.2858 22.0475C25.536 23.2977 27.2317 24.0001 28.9998 24.0001Z"/>
</svg>
