<svg width="106" height="106" viewBox="0 0 106 106" fill="none" xmlns="http://www.w3.org/2000/svg">
<circle cx="53" cy="53" r="53" fill="#FEFEFE"/>
<path d="M53 91.16C39.75 91.16 28.037 84.376 21.2 74.2C21.359 63.6 42.4 57.77 53 57.77C63.6 57.77 84.641 63.6 84.8 74.2C77.963 84.376 66.25 91.16 53 91.16ZM53 15.9C57.2169 15.9 61.2612 17.5752 64.243 20.557C67.2248 23.5388 68.9 27.5831 68.9 31.8C68.9 36.0169 67.2248 40.0612 64.243 43.043C61.2612 46.0248 57.2169 47.7 53 47.7C48.7831 47.7 44.7388 46.0248 41.757 43.043C38.7752 40.0612 37.1 36.0169 37.1 31.8C37.1 27.5831 38.7752 23.5388 41.757 20.557C44.7388 17.5752 48.7831 15.9 53 15.9ZM53 0C46.0399 0 39.148 1.37089 32.7178 4.03439C26.2875 6.69788 20.4448 10.6018 15.5233 15.5233C5.58391 25.4628 0 38.9435 0 53C0 67.0565 5.58391 80.5372 15.5233 90.4767C20.4448 95.3982 26.2875 99.3021 32.7178 101.966C39.148 104.629 46.0399 106 53 106C67.0565 106 80.5372 100.416 90.4767 90.4767C100.416 80.5372 106 67.0565 106 53C106 23.691 82.15 0 53 0Z" fill="#C4C4C4"/>
</svg>
