<svg width="48" height="48" viewBox="0 0 48 48" fill="none" xmlns="http://www.w3.org/2000/svg">
<path d="M35.72 36L37.8 38C35 40.4 29.88 42 24 42C15.18 42 8 38.42 8 34V14C8 9.58 15.16 6 24 6C29.9 6 35 7.6 37.8 10L35.72 12L35 12.8C33.3 11.54 29.56 10 24 10C16.26 10 12 13 12 14C12 15 16.26 18 24 18C26.74 18 29 17.62 30.84 17.08L32.76 19H27V21.84C26 21.94 25 22 24 22C19.22 22 14.94 20.94 12 19.28V24.9C14.6 26.8 19.16 28 24 28C25 28 26 27.94 27 27.84V29H32.76L30.76 31L31 31.22C28.82 31.72 26.48 32 24 32C19.44 32 15.22 31.1 12 29.54V34C12 35 16.26 38 24 38C29.56 38 33.3 36.46 35 35.22L35.72 36ZM37.84 14.16L35 17L40 22H30V26H40L35 31L37.84 33.84L47.68 24L37.84 14.16Z"/>
</svg>
