<svg width="48" height="48" viewBox="0 0 48 48" fill="none" xmlns="http://www.w3.org/2000/svg">
<path d="M17.68 24L7.84 33.84L5 31L10 26H0V22H10L5 17L7.84 14.16L17.68 24ZM24 6C17.18 6 11.36 8.14 9.06 11.14L10 12L12.06 14.14C12 14.1 12 14 12 14C12 13 16.26 10 24 10C31.74 10 36 13 36 14C36 15 31.74 18 24 18C18.76 18 15.16 16.62 13.36 15.44L19.6 21.68C21 21.88 22.48 22 24 22C28.78 22 33.06 20.94 36 19.28V24.9C33.4 26.8 28.84 28 24 28C22.08 28 20.2 27.8 18.48 27.46L15.18 30.74C17.82 31.54 20.82 32 24 32C28.56 32 32.78 31.1 36 29.54V34C36 35 31.74 38 24 38C16.26 38 12 35 12 34V33.92L10 36L9.08 36.86C11.38 39.86 17.2 42 24 42C32.82 42 40 38.42 40 34V14C40 9.58 32.84 6 24 6Z"/>
</svg>
